# xmcd
#
# Track frame offsets: 
#        150
#        20592
#        41837
#        61910
#        78371
#        92490
#        109002
#        124448
#        145172
#        166989
#
# Disc length: 2441 seconds
#
# Revision: 0
# Processed by: cddbd v1.5.2PL0 Copyright (c) Steve Scherf et al.
# Submitted via: ExactAudioCopy v1.3
#
DISCID=8109870a
DTITLE=Barrelhouse - Walking In Time
DYEAR=2002
DGENRE=Blues
TTITLE0=Walking In Time
TTITLE1=Last Night
TTITLE2=Hang On To The Things You Do
TTITLE3=Country Road
TTITLE4=Far East
TTITLE5=Parting Glass
TTITLE6=I Hear You Crying In Your Sleep
TTITLE7=Like You Did Before
TTITLE8=Dark As A Dungeon
TTITLE9=Hard Feelings
EXTD=
EXTT0=
EXTT1=
EXTT2=
EXTT3=
EXTT4=
EXTT5=
EXTT6=
EXTT7=
EXTT8=
EXTT9=
PLAYORDER=
